<svg width="1710" height="2160" viewBox="0 0 1710 2160" fill="none" xmlns="http://www.w3.org/2000/svg">
<circle cx="979" cy="1658" r="500" fill="white"/>
<path fill-rule="evenodd" clip-rule="evenodd" d="M816.481 781.688C816.481 781.688 747.577 911.218 776.811 1074.8C704.51 1178.66 611.782 1240.99 570.869 1250.44C528.537 1260.21 415.921 1240 427.901 1141.08C438.635 1052.37 635.445 878.836 665.798 846.269C711.116 797.65 793.727 776.707 816.481 781.688Z" fill="#FFC2BD"/>
<path fill-rule="evenodd" clip-rule="evenodd" d="M553.282 959.309C609.578 897.798 640.579 869.11 656.052 851.852C723.18 776.957 768.191 777.762 840.532 765.084C840.532 765.084 819.758 864.824 848.995 1028.41C819.688 1061.53 697.78 1158.57 671.539 1182.41L553.282 959.309Z" fill="#0088FC"/>
<path fill-rule="evenodd" clip-rule="evenodd" d="M432.156 775.106C472.003 845.234 540.257 951.749 616.258 1102.73C616.258 1102.73 651.817 1211.66 551.482 1241.49C453.651 1270.57 422.978 1157.64 422.978 1157.64C371.02 1032.39 339.509 908.081 325.237 819.412C323.775 810.315 321.61 801.235 323.805 792.275C326.805 779.997 335.451 764.89 358.025 753.565C411.599 726.678 432.156 775.106 432.156 775.106Z" fill="#FFC2BD"/>
<path fill-rule="evenodd" clip-rule="evenodd" d="M879.224 569.155C879.224 569.155 859.135 515.478 835.819 540.36C812.504 565.243 839.951 619.822 869.635 621.325C899.313 622.832 879.224 569.155 879.224 569.155Z" fill="#FFC2BD"/>
<path fill-rule="evenodd" clip-rule="evenodd" d="M1053.01 568.817C1053.01 568.817 1072.88 515.064 1096.3 539.853C1119.71 564.645 1092.48 619.327 1062.8 620.951C1033.13 622.571 1053.01 568.817 1053.01 568.817Z" fill="#FFC2BD"/>
<path d="M1081.49 552.838C1087.63 549.801 1091.74 551.803 1093.15 556.74C1093.48 557.896 1093.64 559.076 1093.67 560.195L1093.68 561.017C1093.67 561.224 1093.67 561.367 1093.66 561.478C1093.58 562.644 1092.57 563.522 1091.4 563.442C1090.34 563.368 1089.52 562.527 1089.44 561.501L1089.45 560.94C1089.46 559.974 1089.36 558.878 1089.09 557.903C1088.38 555.434 1087.07 554.796 1083.37 556.63C1076.61 559.974 1076.19 565.122 1079.83 575.856L1080.15 576.762C1083.48 586.256 1080.07 593.179 1070.97 595.895C1069.85 596.229 1068.67 595.591 1068.34 594.472C1068.01 593.352 1068.64 592.173 1069.76 591.839C1076.29 589.891 1078.55 585.695 1076.39 578.877L1075.55 576.361C1071.59 564.307 1072.34 557.368 1081.49 552.838Z" fill="#D18888"/>
<path fill-rule="evenodd" clip-rule="evenodd" d="M878.245 738.504V636.933C878.245 587.853 917.973 548.038 967.042 547.937C1014.96 547.847 1054.34 585.729 1056.13 633.626L1059.91 735.18C1061.78 785.49 1021.6 827.333 971.27 827.49L967.489 827.504C918.246 827.654 878.242 787.761 878.245 738.504Z" fill="#FFC2BD"/>
<path fill-rule="evenodd" clip-rule="evenodd" d="M1066.44 561.468C1066.26 581.957 1066.1 611.045 1061.64 631.321C1058.84 644.023 1037.03 670.876 1013.79 688.556C1001.77 697.703 988.103 698.485 970.088 698.521C956.14 698.548 939.608 697.132 925.641 690.847C903.735 680.995 874.057 641.564 871.923 633.098C867.34 614.901 863.323 588.475 863.56 564.214C864.669 451.695 909.636 431.964 966.374 431.854C1023.11 431.74 1067.42 449.654 1066.44 561.468Z" fill="#FFC2BD"/>
<path fill-rule="evenodd" clip-rule="evenodd" d="M1064.77 572.065C1064.87 573.074 1066.35 573.077 1066.41 572.065C1067.7 549.056 1070.32 495.035 1067.69 476.808C1065.54 461.998 1051.4 440.152 1034.43 419.025C1017.46 397.891 1004.06 398.623 999.849 409.918C995.604 403.574 965.215 371.184 956.775 382.486C948.335 393.792 918.751 414.308 918.751 414.308C918.751 414.308 915.905 401.616 907.466 412.918C899.026 424.223 877.601 445.949 869.468 459.552C857.795 479.11 861.499 542.331 863.56 567.905C863.65 569.004 865.25 569.014 865.35 567.915C866.713 553.433 870.043 528.741 877.347 520.92C885.089 512.438 879.01 474.493 888.532 470.103C905.442 462.309 1013.28 459.98 1036.57 470.517C1047.03 475.248 1044.27 513.153 1050.14 520.583C1061.07 534.417 1062.9 551.876 1064.77 572.065Z" fill="#253368"/>
<path d="M903.471 518.568C904.42 517.933 905.579 517.713 906.684 517.943L907.152 518.067L944.581 530.455C946.799 531.19 948.001 533.582 947.27 535.8C946.582 537.881 944.434 539.071 942.34 538.606L941.923 538.489L906.457 526.753L894.093 535.038C892.279 536.251 889.871 535.88 888.502 534.247L888.225 533.876C887.009 532.062 887.383 529.653 889.016 528.283L889.384 528.006L903.471 518.568Z" fill="#253368"/>
<path d="M1029.38 528.116C1029.81 528.096 1030.24 528.136 1030.65 528.243L1031.05 528.37L1043.96 533.101C1046.15 533.906 1047.28 536.338 1046.47 538.533C1045.72 540.587 1043.53 541.707 1041.46 541.175L1041.04 541.049L1028.95 536.615L990.017 538.61C987.829 538.72 985.945 537.15 985.621 535.032L985.575 534.601C985.465 532.412 987.034 530.525 989.155 530.201L989.586 530.157L1029.38 528.116Z" fill="#253368"/>
<path fill-rule="evenodd" clip-rule="evenodd" d="M865.497 592.193C865.497 592.193 892.49 605.533 906.828 627.743C922.765 602.784 946.254 594.859 946.254 594.859C946.254 594.859 959.44 606.241 971.2 608.092C975.161 603.321 987.161 594.425 987.161 594.425C987.161 594.425 1017.23 605.52 1032.36 627.733C1038.68 611.837 1064.74 594.629 1064.74 594.629C1064.74 594.629 1068.02 616.788 1060.25 640.137C1050.72 668.741 1021.81 699.831 974.67 699.921C918.841 700.031 881.685 676.582 872.878 640.859C870.841 629.66 865.517 601.013 865.497 592.193Z" fill="#EFADAB"/>
<path d="M888.232 666.206C888.99 665.497 890.179 665.537 890.887 666.296C893.933 669.55 897.196 672.603 900.646 675.456C907.636 681.243 915.054 685.963 922.425 689.698C924.572 690.787 926.583 691.726 928.43 692.518L929.515 692.976C930.601 693.423 931.412 693.734 931.9 693.911L932.628 694.145C933.246 694.332 934.178 694.586 935.42 694.893C938.206 695.578 941.499 696.24 945.283 696.824C961.525 699.333 980.976 699.647 1003.03 696.627C1019.7 692.598 1033.68 681.523 1045.06 665.905C1045.67 665.063 1046.84 664.879 1047.68 665.491C1048.52 666.102 1048.7 667.278 1048.09 668.117C1036.24 684.393 1021.57 696.012 1003.73 700.315C981.116 703.422 961.304 703.105 944.708 700.539C940.817 699.938 937.414 699.253 934.522 698.541L933.096 698.177C932.875 698.12 932.665 698.06 932.461 698.004L930.918 697.546L929.592 697.055C929.161 696.888 928.654 696.687 928.079 696.447C925.862 695.531 923.39 694.402 920.725 693.052C913.12 689.197 905.469 684.326 898.251 678.353C894.681 675.4 891.301 672.236 888.145 668.862C887.437 668.103 887.477 666.914 888.232 666.206Z" fill="#D18888"/>
<path d="M953.749 542.245C954.644 541.984 955.579 542.425 955.963 543.243L956.074 543.531L960.335 558.337C960.435 558.691 960.432 559.066 960.322 559.42L958.725 564.605C957.533 568.537 956.341 572.556 955.235 576.428L954.531 578.927C952.807 585.077 951.548 590.032 950.897 593.346L950.78 593.94L968.481 605.276L983.667 595.327C984.439 594.822 985.448 594.959 986.059 595.604L986.269 595.871C986.773 596.643 986.64 597.649 985.992 598.263L985.728 598.471L969.523 609.088C968.992 609.435 968.327 609.485 967.756 609.241L967.479 609.098L947.711 596.436C947.086 596.035 946.755 595.303 946.866 594.572C947.317 591.595 948.479 586.761 950.195 580.497L951.622 575.395C952.363 572.8 953.141 570.14 953.936 567.484L956.565 558.835L952.463 544.57C952.203 543.671 952.644 542.739 953.462 542.351L953.749 542.245Z" fill="#D18888"/>
<path fill-rule="evenodd" clip-rule="evenodd" d="M1000.14 615.419C967.229 616.421 936.068 613.855 936.068 613.855C936.068 613.855 943.753 633.399 968.204 633.352C992.648 633.305 1000.14 615.419 1000.14 615.419Z" fill="white"/>
<path d="M932.918 615.094C934.104 618.111 936.706 622.371 941.101 626.52C947.894 632.941 956.892 636.76 968.211 636.736C980.084 636.713 989.329 632.821 996.125 626.396C999.943 622.792 1002.21 619.224 1003.26 616.725C1004.21 614.456 1002.49 611.961 1000.04 612.034C986.75 612.438 972.8 612.298 958.902 611.754L954.547 611.57C951.698 611.443 948.96 611.299 946.355 611.149L940.56 610.788L936.345 610.481C933.847 610.277 932.003 612.763 932.918 615.094ZM942.544 618.068L942.253 617.684L945.964 617.907C949.915 618.138 954.16 618.345 958.639 618.519L963.906 618.706C972.686 618.983 981.453 619.097 990.037 619.007L993.847 618.95L993.156 619.755C992.635 620.336 992.074 620.911 991.479 621.475C985.902 626.744 978.297 629.948 968.197 629.968C958.672 629.984 951.321 626.864 945.747 621.599C944.548 620.466 943.482 619.28 942.544 618.068Z" fill="#D18888"/>
<path d="M960.819 648.523L979.863 648.483C980.902 648.483 981.744 649.321 981.747 650.36C981.747 651.292 981.069 652.071 980.174 652.218L979.87 652.241L960.826 652.281C959.791 652.281 958.946 651.443 958.946 650.404C958.942 649.472 959.624 648.693 960.516 648.546L960.819 648.523Z" fill="#D18888"/>
<path d="M970.048 676.883C970.98 676.883 971.758 677.561 971.905 678.453L971.928 678.76L971.965 698.515C971.968 699.554 971.127 700.396 970.091 700.399C969.156 700.399 968.381 699.721 968.234 698.829L968.208 698.521L968.171 678.767C968.171 677.728 969.009 676.886 970.048 676.883Z" fill="#D18888"/>
<path fill-rule="evenodd" clip-rule="evenodd" d="M947.42 649.649C947.243 650.731 946.221 651.463 945.139 651.286C944.057 651.108 943.325 650.086 943.502 649.004C943.679 647.928 944.702 647.19 945.784 647.367C946.866 647.547 947.597 648.566 947.42 649.649Z" fill="#D18888"/>
<path fill-rule="evenodd" clip-rule="evenodd" d="M930.387 650.965C930.21 652.047 929.188 652.779 928.106 652.602C927.024 652.425 926.289 651.402 926.466 650.32C926.647 649.244 927.665 648.506 928.751 648.683C929.833 648.86 930.564 649.882 930.387 650.965Z" fill="#D18888"/>
<path fill-rule="evenodd" clip-rule="evenodd" d="M1026.41 657.269C1026.79 658.295 1026.27 659.437 1025.25 659.825C1024.22 660.206 1023.08 659.684 1022.69 658.662C1022.3 657.633 1022.82 656.491 1023.85 656.106C1024.88 655.719 1026.02 656.243 1026.41 657.269Z" fill="#D18888"/>
<path fill-rule="evenodd" clip-rule="evenodd" d="M1045.02 647.738C1045.4 648.763 1044.88 649.909 1043.85 650.293C1042.83 650.678 1041.69 650.156 1041.3 649.131C1040.91 648.102 1041.43 646.963 1042.46 646.575C1043.49 646.187 1044.63 646.715 1045.02 647.738Z" fill="#D18888"/>
<path fill-rule="evenodd" clip-rule="evenodd" d="M1010.25 663.082C1010.63 664.108 1010.11 665.253 1009.09 665.641C1008.06 666.022 1006.92 665.501 1006.53 664.475C1006.14 663.446 1006.67 662.307 1007.69 661.919C1008.72 661.532 1009.87 662.06 1010.25 663.082Z" fill="#D18888"/>
<path fill-rule="evenodd" clip-rule="evenodd" d="M992.358 670.996C992.738 672.019 992.224 673.165 991.195 673.552C990.17 673.933 989.025 673.412 988.64 672.39C988.256 671.357 988.774 670.215 989.803 669.83C990.825 669.446 991.977 669.971 992.358 670.996Z" fill="#D18888"/>
<path fill-rule="evenodd" clip-rule="evenodd" d="M907.245 642.843C907.632 643.869 907.111 645.018 906.083 645.399C905.057 645.783 903.912 645.262 903.528 644.236C903.144 643.207 903.665 642.068 904.69 641.681C905.719 641.293 906.864 641.821 907.245 642.843Z" fill="#D18888"/>
<path fill-rule="evenodd" clip-rule="evenodd" d="M945.252 671.33C945.075 672.413 944.053 673.148 942.971 672.971C941.889 672.794 941.154 671.768 941.335 670.686C941.512 669.61 942.534 668.872 943.616 669.049C944.698 669.226 945.43 670.248 945.252 671.33Z" fill="#D18888"/>
<path fill-rule="evenodd" clip-rule="evenodd" d="M960.646 668.224C960.469 669.306 959.447 670.038 958.365 669.861C957.283 669.683 956.552 668.661 956.729 667.579C956.906 666.5 957.928 665.761 959.01 665.938C960.092 666.119 960.823 667.141 960.646 668.224Z" fill="#D18888"/>
<path fill-rule="evenodd" clip-rule="evenodd" d="M1022.86 673.449C1022.68 674.531 1021.66 675.263 1020.58 675.086C1019.5 674.908 1018.76 673.886 1018.94 672.804C1019.12 671.721 1020.14 670.99 1021.22 671.167C1022.31 671.344 1023.04 672.366 1022.86 673.449Z" fill="#D18888"/>
<path fill-rule="evenodd" clip-rule="evenodd" d="M1012.96 650.009C1012.78 651.092 1011.77 651.823 1010.68 651.646C1009.6 651.469 1008.87 650.447 1009.05 649.365C1009.22 648.289 1010.24 647.551 1011.32 647.728C1012.41 647.905 1013.14 648.927 1012.96 650.009Z" fill="#D18888"/>
<path fill-rule="evenodd" clip-rule="evenodd" d="M1020.07 630.142C1019.89 631.224 1018.87 631.956 1017.79 631.779C1016.71 631.602 1015.97 630.579 1016.15 629.497C1016.33 628.414 1017.35 627.679 1018.43 627.856C1019.51 628.037 1020.25 629.059 1020.07 630.142Z" fill="#D18888"/>
<path fill-rule="evenodd" clip-rule="evenodd" d="M928.46 663.346C928.283 664.428 927.258 665.16 926.176 664.983C925.093 664.806 924.362 663.784 924.539 662.701C924.716 661.625 925.738 660.887 926.82 661.064C927.902 661.241 928.637 662.263 928.46 663.346Z" fill="#D18888"/>
<path fill-rule="evenodd" clip-rule="evenodd" d="M1019.54 562.507C1019.56 569.499 1015.39 575.175 1010.24 575.182C1005.09 575.192 1000.89 569.532 1000.88 562.543C1000.86 555.551 1005.04 549.875 1010.19 549.868C1015.34 549.855 1019.53 555.518 1019.54 562.507Z" fill="#253368"/>
<path fill-rule="evenodd" clip-rule="evenodd" d="M928.397 561.551C928.413 568.543 924.242 574.213 919.092 574.226C913.935 574.236 909.75 568.577 909.737 561.588C909.72 554.596 913.885 548.919 919.042 548.913C924.198 548.896 928.383 554.555 928.397 561.551Z" fill="#253368"/>
<path fill-rule="evenodd" clip-rule="evenodd" d="M719.679 1559.62C719.679 1559.62 825.028 1517.53 942.544 1666.85C947 2159 947 2157 947 2157C947 2157 921.5 2156.5 874 2147L863 2144.5L851.5 2141.5L840 2138.5L829 2135C829 2135 807.5 2129.5 768 2111.5C696.5 1588 719.679 1559.62 719.679 1559.62Z" fill="#4E5C93"/>
<path fill-rule="evenodd" clip-rule="evenodd" d="M1112.65 1268.22C1112.65 1268.22 1291.45 844.706 1273.08 807.947C1254.71 771.184 1132.38 724.409 927.378 738.528C721.497 752.703 676.913 839.397 676.913 839.397C676.913 839.397 690.53 1066.09 746.829 1241.49C723.45 1283.26 765.957 1312.91 765.957 1312.91C765.957 1312.91 1032.8 1300.57 1096.27 1303.91C1125.91 1291.2 1112.65 1268.22 1112.65 1268.22Z" fill="#0088FC"/>
<path d="M694.444 891.096C693.385 891.009 692.46 891.798 692.373 892.857L692.253 894.607L692.096 897.474C692.059 898.175 692.026 898.917 691.992 899.706L691.852 903.427C691.141 924.902 691.805 952.928 694.768 986.654C699.2 1037.04 708.12 1091.56 722.535 1149.26L723.861 1154.51L744.799 1241.25L744.284 1242.3L743.683 1243.59C742.611 1245.95 741.542 1248.56 740.54 1251.37C737.828 1259 736.135 1266.62 735.965 1273.8C735.554 1291.36 744.324 1303.49 764.567 1307.05C765.612 1307.23 766.608 1306.53 766.791 1305.48C766.975 1304.44 766.277 1303.44 765.232 1303.26C746.963 1300.05 739.438 1289.64 739.809 1273.89C739.966 1267.18 741.576 1259.94 744.161 1252.66C745.123 1249.96 746.151 1247.44 747.18 1245.19L748.082 1243.27C748.265 1242.9 748.416 1242.6 748.529 1242.39C748.693 1242.08 748.766 1241.73 748.75 1241.38L748.696 1241.04L727.592 1153.59C712.442 1094.12 703.144 1038.03 698.599 986.316L698.101 980.453C695.496 948.528 694.995 922.019 695.76 901.697L695.933 897.668L696.204 893.168C696.287 892.109 695.499 891.183 694.444 891.096Z" fill="#253368"/>
<path fill-rule="evenodd" clip-rule="evenodd" d="M734.198 1433.64C743.596 1394.15 761.725 1351.04 761.725 1351.04L765.96 1312.91C880.296 1272.67 1089.91 1304.44 1089.91 1304.44C1089.91 1304.44 1093.36 1321.91 1101.82 1345.21C1158.82 1405.44 1182.08 1606.18 1182.08 1606.18L949.611 1697.97L716.857 1618.25C716.857 1618.25 718.317 1500.35 734.198 1433.64Z" fill="#4E5C93"/>
<path fill-rule="evenodd" clip-rule="evenodd" d="M1176.86 1577.25C1176.86 1577.25 1012.98 1332.5 933.577 1647.02C1078.5 2155 1077 2148.5 1077 2148.5C1077 2148.5 1101 2144.5 1141 2131L1146 2129.5L1151 2127.5L1163 2123L1184 2114C1184 2114 1221 2098 1253.5 2076C1159.5 1451 1176.86 1577.25 1176.86 1577.25Z" fill="#4E5C93"/>
<path fill-rule="evenodd" clip-rule="evenodd" d="M859.342 750.037L875.711 708.153L910.879 714.738L934.575 787.661L979.967 713.588L1073.75 699.243L1100.08 750.037C1100.08 750.037 1013.73 858.44 904.48 830.931C850.511 817.341 859.342 750.037 859.342 750.037Z" fill="#0088FC"/>
<path fill-rule="evenodd" clip-rule="evenodd" d="M761.194 1351.56C922.378 1330.91 1102.62 1342.75 1102.62 1342.75L1096.27 1297.47C1096.27 1297.47 891.411 1271.26 764.901 1305.15C761.989 1326.86 761.194 1351.56 761.194 1351.56Z" fill="#253368"/>
<path d="M916.27 1343.98C914.83 1343.99 913.654 1345.08 913.491 1346.47L913.471 1346.89L913.618 1358.32L913.811 1369.36C914.012 1379.74 914.282 1390.97 914.63 1402.88L914.736 1406.47C916.012 1448.58 917.996 1490.68 920.845 1530.3L921.389 1537.7C926.019 1599.23 932.388 1648.87 940.774 1682.43C941.151 1683.94 942.681 1684.86 944.194 1684.48C945.704 1684.1 946.622 1682.57 946.245 1681.06C937.955 1647.89 931.623 1598.51 927.014 1537.27C924.065 1498.06 921.984 1456.2 920.625 1414.19L920.167 1399.17C919.87 1388.59 919.633 1378.58 919.452 1369.25L919.192 1353.77L919.112 1346.78C919.098 1345.22 917.826 1343.97 916.27 1343.98Z" fill="#253368"/>
<path d="M854.883 1346.1C853.327 1346.1 852.067 1347.37 852.067 1348.92L852.117 1356.97L852.244 1368.61C852.301 1373.12 852.375 1377.87 852.465 1382.81C852.892 1406.1 853.597 1429.39 854.646 1451.39L854.94 1457.35C858.183 1520.84 863.47 1559.76 872.591 1566.86C878.178 1571.2 885.316 1575.64 893.659 1580.12C900.936 1584.02 908.721 1587.73 916.503 1591.14L919.676 1592.5C920.698 1592.94 921.686 1593.36 922.635 1593.75L926.907 1595.48C928.359 1596.04 929.993 1595.32 930.557 1593.87C931.118 1592.41 930.4 1590.78 928.947 1590.22L927.661 1589.71L926.165 1589.1C923.931 1588.19 921.443 1587.14 918.764 1585.97C911.109 1582.62 903.454 1578.97 896.324 1575.15C888.238 1570.81 881.354 1566.53 876.054 1562.4C869.057 1556.96 863.64 1517.09 860.574 1457.06C859.365 1433.41 858.57 1408.06 858.106 1382.7L857.922 1371.27C857.869 1367.59 857.825 1364.06 857.792 1360.69L857.712 1349.67L857.708 1348.91C857.708 1347.35 856.443 1346.09 854.883 1346.1Z" fill="#253368"/>
<path fill-rule="evenodd" clip-rule="evenodd" d="M957.58 1337V1291.78C957.58 1285.87 953.074 1281.03 947.373 1280.86C928.466 1280.3 886.451 1279.79 848.337 1284.63C843.02 1285.3 839.009 1289.93 839.009 1295.48V1338C839.009 1344.08 843.771 1348.99 849.649 1348.92C871.255 1348.65 920.471 1348.06 947.123 1347.91C952.924 1347.88 957.58 1343 957.58 1337Z" fill="#E4EBF7"/>
<path fill-rule="evenodd" clip-rule="evenodd" d="M945.349 1329.19L945.339 1299.26C945.336 1295.35 941.662 1292.15 937.01 1292.04C921.583 1291.67 887.306 1291.35 856.212 1294.56C851.874 1295.01 848.601 1298.09 848.601 1301.75L848.611 1329.9C848.611 1333.92 852.505 1337.17 857.294 1337.12C874.922 1336.94 915.08 1336.53 936.819 1336.42C941.558 1336.4 945.349 1333.17 945.349 1329.19Z" fill="#253368"/>
<path fill-rule="evenodd" clip-rule="evenodd" d="M848.935 1288.79L949.03 1333.47L944.898 1342.57L843.972 1297.06L848.935 1288.79Z" fill="#E4EBF7"/>
<path fill-rule="evenodd" clip-rule="evenodd" d="M844.637 1332.04L944.962 1287.88L948.923 1297.06L847.432 1341.28L844.637 1332.04Z" fill="#E4EBF7"/>
<path d="M1051.37 1346.13C1051 1344.62 1049.47 1343.69 1047.96 1344.06C1046.44 1344.43 1045.52 1345.96 1045.89 1347.47L1046.15 1348.48C1046.36 1349.28 1046.62 1350.2 1046.92 1351.23C1047.77 1354.18 1048.82 1357.46 1050.05 1360.99C1053.59 1371.08 1057.97 1381.17 1063.26 1390.6C1080.44 1421.27 1103.06 1438.26 1131.64 1433.78C1133.18 1433.54 1134.23 1432.09 1133.99 1430.55C1133.75 1429.01 1132.31 1427.96 1130.77 1428.2C1105.05 1432.24 1084.34 1416.68 1068.18 1387.84C1063.07 1378.72 1058.81 1368.92 1055.38 1359.13C1054.38 1356.27 1053.51 1353.58 1052.77 1351.11L1051.85 1347.96C1051.62 1347.14 1051.46 1346.52 1051.37 1346.13Z" fill="#253368"/>
<path d="M908.05 1624.81C907.258 1623.62 905.719 1623.23 904.47 1623.84L904.139 1624.03L827.683 1675.16C826.391 1676.03 826.043 1677.78 826.908 1679.08C827.7 1680.26 829.24 1680.66 830.489 1680.05L830.819 1679.85L907.275 1628.72C908.568 1627.85 908.918 1626.1 908.05 1624.81Z" fill="#253368"/>
<path d="M935.173 1618.75C933.997 1617.94 932.424 1618.14 931.486 1619.16L931.248 1619.47L903.384 1659.72C902.496 1661 902.816 1662.75 904.096 1663.64C905.271 1664.45 906.844 1664.25 907.783 1663.23L908.02 1662.93L935.884 1622.68C936.773 1621.4 936.452 1619.64 935.173 1618.75Z" fill="#253368"/>
<path d="M1083 751.086C1082.59 750.224 1081.61 749.813 1080.73 750.074L1080.44 750.184L1019.21 779.566C1018.25 780.024 1017.85 781.173 1018.31 782.129C1018.72 782.991 1019.69 783.405 1020.58 783.144L1020.87 783.031L1082.1 753.648C1083.05 753.191 1083.46 752.041 1083 751.086Z" fill="#253368"/>
<path d="M783.835 1356.08C782.282 1355.97 780.936 1357.14 780.829 1358.7L780.642 1360.91C780.598 1361.36 780.552 1361.85 780.498 1362.36C780.201 1365.31 779.804 1368.6 779.289 1372.14C777.83 1382.25 775.756 1392.36 772.974 1401.77C765.536 1426.92 754.531 1442.22 739.799 1443.35C738.246 1443.47 737.084 1444.83 737.204 1446.38C737.324 1447.94 738.68 1449.1 740.233 1448.98C758.085 1447.61 770.338 1430.57 778.381 1403.37C781.25 1393.67 783.374 1383.31 784.873 1372.95C785.311 1369.93 785.665 1367.08 785.949 1364.47L786.32 1360.75L786.457 1359.09C786.563 1357.53 785.391 1356.19 783.835 1356.08Z" fill="#253368"/>
<path fill-rule="evenodd" clip-rule="evenodd" d="M1091.96 944.199C1084.27 908.555 1074.2 812.931 1168.91 784.848C1244.64 762.391 1277.36 809.938 1300.69 855.209C1340.8 933.064 1361.2 1030.82 1383.67 1163.44C1383.67 1163.44 1404.11 1275.95 1295.76 1295.28C1204.07 1311.64 1179.77 1220.01 1179.77 1220.01C1179.77 1220.01 1100.74 984.937 1091.96 944.199Z" fill="#FFC2BD"/>
<path fill-rule="evenodd" clip-rule="evenodd" d="M1141.45 1104.97C1129.41 1069.03 1080.51 943.844 1077.75 931.009C1070.06 895.366 1066.26 804.973 1160.97 776.89C1236.7 754.43 1280.92 797.907 1303.41 843.603C1318.9 875.11 1358.46 1012.07 1361.5 1041L1141.45 1104.97Z" fill="#0088FC"/>
<path d="M1205.19 781.481C1204.83 780.482 1203.73 779.957 1202.73 780.308L1201.59 780.756C1200.69 781.12 1199.66 781.574 1198.5 782.119C1195.21 783.672 1191.56 785.663 1187.62 788.136C1176.42 795.188 1165.22 804.699 1154.78 817.024C1139.54 835.011 1127.24 857.461 1118.92 884.859C1118.61 885.875 1119.18 886.947 1120.2 887.258C1121.22 887.565 1122.29 886.994 1122.59 885.978C1130.76 859.085 1142.81 837.095 1157.71 819.509C1167.89 807.496 1178.78 798.238 1189.67 791.39C1193.47 789.001 1196.99 787.083 1200.14 785.597L1201.69 784.888C1201.93 784.781 1202.17 784.681 1202.39 784.584L1203.9 783.976C1203.94 783.96 1203.98 783.946 1204.01 783.933C1205.02 783.579 1205.54 782.483 1205.19 781.481Z" fill="#253368"/>
<path fill-rule="evenodd" clip-rule="evenodd" d="M848.06 1313.79C937.668 1310.96 1162 1332.65 1282.48 1307.98C1282.48 1307.98 1407.38 1279.17 1381.88 1169.18C1357.02 1061.94 1230.88 1097.55 1230.88 1097.55C1088.87 1134.35 899.751 1177.47 819.848 1195.26C819.848 1195.26 794.756 1193.21 797.281 1247.94C800.27 1312.89 848.06 1313.79 848.06 1313.79Z" fill="#FFC2BD"/>
<path d="M933.072 802.728C932.054 802.431 930.988 803.019 930.694 804.038L930.053 806.333L929.422 808.695C929.201 809.527 928.974 810.406 928.741 811.324L928.383 812.734C926.656 819.603 924.93 827.196 923.317 835.305C919.513 854.444 916.944 873.407 916.176 891.146C915.665 902.956 915.979 913.894 917.215 923.783C917.348 924.839 918.307 925.584 919.359 925.453C920.414 925.32 921.159 924.361 921.029 923.309C919.82 913.647 919.513 902.919 920.017 891.313C920.772 873.791 923.317 855.016 927.084 836.053C928.507 828.904 930.016 822.158 931.539 815.968L932.107 813.673C932.588 811.769 933.039 810.031 933.456 808.475L934.385 805.11C934.679 804.091 934.094 803.026 933.072 802.728Z" fill="#253368"/>
<path d="M1103.43 960.108C1102.4 960.331 1101.73 961.354 1101.96 962.389L1102.7 965.754C1109.27 994.876 1130.35 1076 1139.63 1103.69C1139.92 1104.56 1140.77 1105.08 1141.65 1105L1141.98 1104.93L1362.02 1042.85C1363.04 1042.56 1363.63 1041.5 1363.35 1040.48C1363.09 1039.56 1362.2 1038.99 1361.28 1039.09L1360.98 1039.15L1142.7 1100.73L1141.61 1097.33C1131.58 1065.52 1112.08 990.178 1106.2 963.782L1105.72 961.581C1105.52 960.645 1104.67 960.017 1103.74 960.064L1103.43 960.108Z" fill="#253368"/>
<path fill-rule="evenodd" clip-rule="evenodd" d="M832.964 1332.97L760.479 1106.15C759.28 1102.41 755.833 1099.85 751.906 1099.8L548.646 1097.05C542.334 1096.96 537.845 1103.17 539.892 1109.14L615.56 1329.93C616.779 1333.48 620.045 1335.92 623.793 1336.09L823.876 1344.86C830.218 1345.14 834.897 1339.02 832.964 1332.97Z" fill="#A3B5D6"/>
<path fill-rule="evenodd" clip-rule="evenodd" d="M822.249 1330.2L751.027 1107.34C749.578 1102.81 745.4 1099.71 740.65 1099.65L534.879 1096.86C530.461 1096.81 527.321 1101.14 528.754 1105.32L605.473 1329.16C606.819 1333.1 610.437 1335.8 614.585 1335.98L811.238 1344.61C818.923 1344.95 824.594 1337.53 822.249 1330.2Z" fill="#253368"/>
<path fill-rule="evenodd" clip-rule="evenodd" d="M723.166 1121.13C720.865 1123.69 721.694 1128.18 725.013 1131.17C728.337 1134.16 732.895 1134.51 735.193 1131.95C737.498 1129.39 736.673 1124.89 733.346 1121.9C730.023 1118.92 725.464 1118.57 723.166 1121.13Z" fill="#4E5C93"/>
<path fill-rule="evenodd" clip-rule="evenodd" d="M725.895 1123.8C724.703 1125.13 725.127 1127.47 726.85 1129.02C728.58 1130.57 730.945 1130.75 732.141 1129.42C733.333 1128.09 732.902 1125.76 731.179 1124.21C729.455 1122.66 727.091 1122.47 725.895 1123.8Z" fill="#E4EBF7"/>
<path fill-rule="evenodd" clip-rule="evenodd" d="M688.966 1282.13C674.355 1278.32 672.541 1265.85 675.921 1253.71C658.965 1245.23 663.376 1230.41 663.376 1230.41C663.376 1230.41 629.086 1224.39 625.643 1208.77C624.31 1202.7 629.647 1197.3 635.833 1197.86C710.275 1204.64 769.029 1174 769.029 1174C769.029 1174 746.869 1126.83 753.068 1107.7C754.902 1102.04 762.787 1101.38 765.582 1106.63C789.542 1151.56 849.937 1188.37 849.937 1188.37C849.937 1188.37 952.991 1288.5 868.747 1306.89C868.747 1306.89 749.231 1327.24 703.244 1301.25C685.63 1291.3 688.966 1282.13 688.966 1282.13Z" fill="#FFC2BD"/>
<path d="M657.545 1228.34C656.556 1228.02 655.501 1228.57 655.187 1229.56C654.873 1230.55 655.417 1231.61 656.409 1231.92L657.832 1232.34C658.303 1232.48 658.851 1232.63 659.479 1232.8C661.903 1233.45 664.629 1234.1 667.598 1234.7C678.713 1236.97 690.025 1238.03 700.622 1237.19C706.968 1236.69 712.829 1235.51 718.106 1233.58C719.081 1233.22 719.579 1232.14 719.222 1231.17C718.864 1230.2 717.786 1229.7 716.814 1230.05C711.881 1231.86 706.35 1232.97 700.328 1233.44C690.128 1234.25 679.15 1233.22 668.349 1231.02C665.457 1230.43 662.805 1229.8 660.451 1229.17L658.099 1228.51C657.876 1228.44 657.692 1228.38 657.545 1228.34Z" fill="#D18888"/>
<path d="M676.021 1251.95C675.139 1251.4 673.98 1251.67 673.433 1252.55C672.885 1253.44 673.155 1254.59 674.037 1255.14L674.882 1255.64C675.356 1255.91 675.954 1256.23 676.672 1256.61C678.75 1257.67 681.104 1258.74 683.696 1259.74C695.993 1264.47 708.905 1265.96 721.273 1262.25C722.268 1261.95 722.832 1260.9 722.532 1259.91C722.235 1258.91 721.186 1258.35 720.194 1258.65C708.738 1262.09 696.631 1260.68 685.042 1256.23C682.584 1255.29 680.353 1254.27 678.396 1253.26L677.1 1252.57C676.616 1252.31 676.252 1252.1 676.021 1251.95Z" fill="#D18888"/>
<path d="M692.172 1281.61C691.885 1282.61 692.463 1283.66 693.458 1283.94L696.077 1284.66L697.002 1284.91C699.734 1285.63 702.633 1286.36 705.572 1287.03C707.973 1287.58 710.304 1288.08 712.525 1288.5L714.857 1288.93C722.044 1290.2 727.331 1290.54 730.34 1289.64C731.335 1289.34 731.9 1288.29 731.603 1287.3C731.302 1286.3 730.257 1285.74 729.261 1286.04C726.743 1286.79 720.979 1286.3 713.233 1284.81C711.059 1284.39 708.775 1283.91 706.413 1283.37C704.239 1282.87 702.088 1282.34 700.014 1281.81L697.052 1281.03L694.494 1280.33C693.498 1280.04 692.456 1280.62 692.172 1281.61Z" fill="#D18888"/>
<path fill-rule="evenodd" clip-rule="evenodd" d="M437.409 783.479C437.409 783.479 379.089 604.381 306.629 555.828C284.415 555.708 303.963 584.493 318.381 607.979C325.756 619.985 330.3 634.966 330.3 634.966C330.3 634.966 300.026 630.696 304.76 655.615C280.443 653.497 288.102 679.937 288.102 679.937C288.102 679.937 269.371 679.215 274.316 703.69C275.864 711.347 302.611 826.174 363.004 848.775C395.681 861.002 427.229 818.818 437.409 783.479Z" fill="#FFC2BD"/>
<path d="M372.783 651.954C367.987 630.045 359.007 620.794 350.891 627.599C343.904 633.462 341.993 649.298 347.461 663.994L348.543 666.937C358.122 693.336 358.502 703.673 353.546 714.631L352.621 716.578C350.58 720.801 349.688 723.294 349.244 726.945C346.308 751.016 355.229 773.396 382.639 781.768C383.544 782.042 384.5 781.534 384.777 780.629C385.051 779.727 384.543 778.768 383.638 778.494C358.148 770.71 349.882 749.973 352.641 727.359C352.998 724.429 353.683 722.351 355.253 719.014L356.064 717.32C362.243 704.562 361.966 693.206 350.667 662.801C345.657 649.328 347.384 635.012 353.092 630.222C358.098 626.022 364.591 632.353 369.026 650.771L369.537 652.993L393.865 709.69C394.239 710.558 395.244 710.959 396.112 710.588C396.884 710.258 397.288 709.426 397.108 708.634L397.011 708.34L372.783 651.954Z" fill="#D18888"/>
<path d="M306.315 654.904C305.921 654.045 304.906 653.668 304.047 654.062C303.187 654.456 302.81 655.472 303.204 656.33L304.005 658.031L305.037 660.152C305.403 660.894 305.791 661.672 306.199 662.474C308.53 667.074 311.042 671.675 313.643 675.974C316.796 681.186 319.865 685.599 322.788 688.967C327.488 694.386 331.71 697.045 335.588 696.079C345.734 693.554 348.917 686.561 346.546 677.12C345.691 673.709 344.151 670.118 342.124 666.466C341.015 664.465 339.829 662.571 338.64 660.84L337.979 659.895C337.575 659.33 337.254 658.896 337.034 658.615C336.453 657.87 335.377 657.737 334.632 658.318C333.888 658.896 333.754 659.972 334.335 660.717L334.933 661.519C335.184 661.866 335.481 662.287 335.818 662.778C336.95 664.425 338.079 666.229 339.135 668.127C341.025 671.541 342.454 674.872 343.226 677.952C345.173 685.703 342.882 690.737 334.759 692.759C332.568 693.303 329.288 691.238 325.372 686.725C322.597 683.525 319.631 679.262 316.57 674.2C314.019 669.981 311.546 665.454 309.251 660.927L308.106 658.639L306.411 655.114C306.374 655.034 306.342 654.964 306.315 654.904Z" fill="#D18888"/>
<path d="M290.823 680.748C290.548 679.846 289.591 679.335 288.688 679.612C287.784 679.886 287.275 680.845 287.55 681.747L288.012 683.154C288.386 684.253 288.831 685.472 289.343 686.788C290.807 690.544 292.526 694.302 294.493 697.82C300.395 708.377 307.267 714.704 315.267 714.424C323.284 714.146 327.158 709.255 327.617 701.735C327.787 698.959 327.483 696.026 326.875 693.133C326.761 692.588 326.641 692.07 326.519 691.589L326.185 690.36C326.142 690.213 326.106 690.096 326.078 690.012C325.787 689.114 324.822 688.619 323.923 688.913C323.024 689.204 322.532 690.169 322.823 691.068L322.99 691.623C323.145 692.171 323.336 692.926 323.527 693.838C324.077 696.453 324.35 699.099 324.202 701.528C323.841 707.445 321.187 710.796 315.148 711.003C308.825 711.227 302.812 705.687 297.48 696.149C295.597 692.782 293.942 689.164 292.531 685.546C292.16 684.594 291.827 683.695 291.532 682.86L291.027 681.386C290.933 681.099 290.865 680.885 290.823 680.748Z" fill="#D18888"/>
<path d="M273.472 698.388C272.547 698.582 271.954 699.49 272.148 700.412L272.291 701.05L272.446 701.692C272.691 702.687 272.989 703.793 273.341 704.983C274.348 708.387 275.592 711.791 277.088 714.982C282.438 726.387 289.666 732.411 298.958 729.431C305.896 727.206 308.565 722.592 307.522 716.685C307.052 714.023 305.859 711.25 304.171 708.46C303.411 707.204 302.599 706.028 301.786 704.959L301.025 703.994C300.886 703.823 300.768 703.683 300.676 703.576C300.054 702.864 298.973 702.794 298.262 703.416C297.55 704.037 297.477 705.116 298.099 705.828L298.586 706.419C298.726 706.596 298.887 706.8 299.064 707.034C299.807 708.009 300.551 709.088 301.244 710.231C302.732 712.693 303.767 715.098 304.153 717.283C304.903 721.526 303.196 724.476 297.913 726.17C290.77 728.462 284.894 723.564 280.186 713.528C278.77 710.508 277.584 707.261 276.622 704.01C276.37 703.158 276.146 702.35 275.952 701.602L275.571 700.045C275.539 699.904 275.514 699.794 275.497 699.711C275.325 698.889 274.589 698.331 273.779 698.351L273.472 698.388Z" fill="#D18888"/>
<path d="M303.657 726.183C302.764 725.873 301.79 726.347 301.48 727.239C301.169 728.131 301.642 729.107 302.534 729.417L303.365 729.728C303.613 729.825 303.904 729.942 304.233 730.075C305.618 730.647 307.166 731.342 308.835 732.17C313.608 734.535 318.381 737.465 322.829 740.987C334.789 750.451 342.194 762.334 342.918 776.867C342.965 777.809 343.767 778.537 344.712 778.491C345.657 778.444 346.382 777.639 346.335 776.697C345.557 761.058 337.621 748.33 324.953 738.301C320.303 734.622 315.328 731.565 310.354 729.103C308.959 728.412 307.643 727.807 306.427 727.286L305.533 726.912C304.65 726.548 304.011 726.307 303.657 726.183Z" fill="#D18888"/>
<path d="M1210.7 1103.1L849.516 1186.54C848.508 1186.78 847.876 1187.78 848.11 1188.79C848.321 1189.71 849.159 1190.31 850.061 1190.25L850.361 1190.2L1211.54 1106.76C1212.55 1106.53 1213.18 1105.52 1212.95 1104.51C1212.74 1103.6 1211.9 1102.99 1211 1103.05L1210.7 1103.1Z" fill="#D18888"/>
</svg>
