<svg width="1207" height="1580" viewBox="0 0 1207 1580" fill="none" xmlns="http://www.w3.org/2000/svg">
<circle cx="500" cy="1080" r="500" fill="white"/>
<g clip-path="url(#clip0_50_10)">
<path fill-rule="evenodd" clip-rule="evenodd" d="M511.866 2023.55C555.977 2011.18 582.621 1966.38 572.432 1921.72L472.176 1482.33C458.443 1422.15 397.151 1385.69 337.709 1402.36C278.27 1419.02 244.864 1482.03 264.419 1540.58L407.195 1968.05C421.706 2011.49 467.761 2035.91 511.866 2023.55Z" fill="#4E5C93"/>
<path fill-rule="evenodd" clip-rule="evenodd" d="M886.755 1863.45C921.701 1833.83 927.261 1782.01 899.394 1745.65L625.216 1387.97C587.66 1338.97 516.751 1331.36 469.656 1371.28C422.562 1411.18 418.433 1482.38 460.606 1527.47L768.471 1856.6C799.765 1890.06 851.805 1893.07 886.755 1863.45Z" fill="#4E5C93"/>
<path fill-rule="evenodd" clip-rule="evenodd" d="M266.815 1217.04C266.815 1217.04 93.4817 867.354 110.058 834.198C126.64 801.035 249.014 726.483 433.99 739.216C619.768 752.006 684.727 827.471 684.727 827.471C684.727 827.471 636.964 1049.1 596.903 1192.92C618.005 1230.6 579.65 1257.35 579.65 1257.35C579.65 1257.35 338.869 1246.22 281.594 1249.23C254.845 1237.77 266.815 1217.04 266.815 1217.04Z" fill="#0088FC"/>
<path fill-rule="evenodd" clip-rule="evenodd" d="M667.691 1467.88L484.412 1555.7L267.463 1544.25C267.463 1544.25 217.123 1406.78 276.577 1286.49C284.222 1265.48 287.326 1249.71 287.326 1249.71C287.326 1249.71 476.473 1221.05 579.647 1257.35L583.471 1291.75C583.471 1291.75 607.448 1342.58 621.871 1376.24C644.781 1429.69 667.691 1467.88 667.691 1467.88Z" fill="#4E5C93"/>
<path fill-rule="evenodd" clip-rule="evenodd" d="M304.52 712.837L314.058 546.449H471.679L471.531 726.209L426.32 812.189L304.52 712.837Z" fill="#FFC2BD"/>
<path d="M428.463 642.839C429.4 642.836 430.163 643.592 430.166 644.526C430.169 645.37 429.557 646.072 428.752 646.205L428.478 646.229L412.385 646.301C411.448 646.307 410.685 645.551 410.682 644.614C410.679 643.773 411.291 643.071 412.096 642.935L412.37 642.911L428.463 642.839Z" fill="#D18888"/>
<path fill-rule="evenodd" clip-rule="evenodd" d="M360.863 455.054C360.863 455.054 447.404 427.476 473.442 467.223C498.76 505.879 508.063 650.011 463.446 674.395C427.08 694.267 350.439 689.99 328.599 621.318C328.599 621.318 310.481 568.714 313.663 520.71C316.843 472.708 360.863 455.054 360.863 455.054Z" fill="#FFC2BD"/>
<path fill-rule="evenodd" clip-rule="evenodd" d="M326.357 579.347C326.357 579.347 300.065 534.829 283.264 560.602C266.46 586.371 299.433 630.528 326.04 627.198C352.648 623.865 326.357 579.347 326.357 579.347Z" fill="#FFC2BD"/>
<path fill-rule="evenodd" clip-rule="evenodd" d="M493.13 549.403C493.13 549.403 501.626 493.463 486.44 459.834C471.251 426.207 452.247 392.782 440.816 411.564C438.447 403.083 426.082 386.52 417.195 381.258C408.304 375.993 383.577 414.619 383.577 414.619C383.577 414.619 384.572 397.348 374.636 408.399C364.702 419.453 302.518 455.301 292.941 473.03C283.367 490.76 292.308 553.586 292.308 553.586C292.308 553.586 312.717 550.584 325.772 589.111C321.233 557.784 333.457 540.63 339.849 534.012C342.278 531.502 343.562 528.12 343.637 524.637C343.791 517.94 343.95 506.702 343.643 495.753C343.507 490.926 346.819 486.755 351.527 485.679C399.444 474.721 453.012 479.416 472.125 481.668C476.446 482.18 479.903 485.444 480.708 489.72L487.386 525.242C487.386 525.242 490.255 531.381 493.13 549.403Z" fill="#253368"/>
<path d="M380.274 538.246L380.687 538.273L411.909 542.025C414.003 542.278 415.495 544.18 415.245 546.272C415.007 548.234 413.322 549.668 411.387 549.635L410.999 549.608L380.609 545.952L365.498 550.846C363.618 551.455 361.608 550.527 360.83 548.755L360.692 548.39C360.083 546.51 361.011 544.5 362.783 543.719L363.148 543.58L379.054 538.433C379.449 538.303 379.861 538.243 380.274 538.246Z" fill="#253368"/>
<path d="M472.917 534.591C473.439 534.422 473.984 534.368 474.524 534.428L474.928 534.497L487.027 537.2C489.086 537.658 490.382 539.702 489.921 541.757C489.49 543.686 487.669 544.946 485.75 544.717L485.364 544.65L474.277 542.173L445.177 551.591C443.296 552.199 441.286 551.271 440.508 549.499L440.37 549.135C439.761 547.254 440.689 545.244 442.461 544.466L442.826 544.328L472.917 534.591Z" fill="#253368"/>
<path fill-rule="evenodd" clip-rule="evenodd" d="M328.767 597.633C328.767 597.633 354.45 615.562 368.4 634.906C385.099 611.774 403.434 601.229 403.434 601.229C403.434 601.229 425.901 616.128 437.079 610.508C440.43 606.023 439.806 601.681 439.806 601.681C439.806 601.681 459.506 607.805 474.171 627.113C479.128 612.497 494.269 593.11 494.269 593.11C494.269 593.11 502.68 686.341 434.074 691.434C364.675 695.138 339.496 657.973 329.903 626.2C327.547 616.204 323.379 590.75 328.767 597.633Z" fill="#EFADAB"/>
<path d="M393.417 623.874C393.811 622.689 395.092 622.047 396.277 622.445L397.407 622.795C397.783 622.909 398.232 623.039 398.745 623.183C400.761 623.75 403.033 624.317 405.51 624.847C415.064 626.887 424.792 627.8 433.815 626.959C438.649 626.507 443.115 625.555 447.144 624.057C448.314 623.62 449.616 624.217 450.049 625.386C450.486 626.556 449.89 627.858 448.72 628.292C444.296 629.937 439.444 630.974 434.234 631.459C424.692 632.351 414.53 631.396 404.567 629.268C401.99 628.716 399.625 628.126 397.521 627.535L395.707 627.005C395.348 626.893 395.059 626.803 394.845 626.73C393.661 626.336 393.022 625.055 393.417 623.874Z" fill="#D18888"/>
<path d="M436.094 548.872C437.049 548.908 437.814 549.644 437.917 550.569L437.929 550.849L437.546 561.102L438.682 565.423C439.592 568.982 440.502 572.762 441.349 576.598C442.058 579.789 442.69 582.884 443.233 585.835L443.652 588.167C445.891 601.093 446.021 609.2 442.85 611.948C439.731 614.655 433.854 614.025 425.633 611.225C423.539 610.514 421.342 609.67 419.078 608.721C416.544 607.657 414.061 606.521 411.725 605.385L409.513 604.285C409.121 604.083 408.841 603.938 408.693 603.86C407.762 603.365 407.406 602.211 407.901 601.28C408.392 600.349 409.546 599.993 410.477 600.487L411.249 600.885C411.879 601.208 412.599 601.566 413.394 601.955C415.67 603.061 418.093 604.17 420.555 605.201C422.74 606.12 424.859 606.931 426.863 607.615C433.74 609.953 438.712 610.49 440.349 609.067C442.088 607.56 441.75 598.86 439.481 586.525C438.947 583.623 438.324 580.57 437.624 577.421C436.952 574.386 436.244 571.387 435.524 568.506L434.755 565.465L433.788 561.831L433.722 561.249L434.113 550.708C434.153 549.656 435.039 548.833 436.094 548.872Z" fill="#D18888"/>
<path d="M395.403 569.838C396.651 569.772 397.714 570.73 397.781 571.975C398.133 578.626 394.414 584.467 389.026 584.75C383.631 585.039 379.313 579.63 378.954 572.982C378.885 571.734 379.843 570.67 381.088 570.604C382.336 570.535 383.399 571.493 383.469 572.738C383.707 577.159 386.271 580.371 388.785 580.236C391.292 580.103 393.501 576.634 393.266 572.216C393.2 570.969 394.155 569.905 395.403 569.838Z" fill="#253368"/>
<path d="M470.525 565.833C471.772 565.767 472.836 566.722 472.902 567.97C473.255 574.618 469.539 580.456 464.148 580.745C458.753 581.034 454.435 575.625 454.076 568.971C454.01 567.726 454.965 566.659 456.213 566.593C457.457 566.526 458.524 567.482 458.59 568.726C458.829 573.154 461.393 576.366 463.907 576.23C466.417 576.095 468.623 572.629 468.388 568.211C468.322 566.963 469.28 565.9 470.525 565.833Z" fill="#253368"/>
<path d="M397.293 615.242C398.124 614.311 399.556 614.236 400.484 615.071C401.328 615.83 401.466 617.078 400.858 617.997L400.653 618.262L388.915 631.326C388.08 632.255 386.651 632.333 385.723 631.498C384.879 630.739 384.738 629.488 385.346 628.569L385.551 628.307L397.293 615.242Z" fill="#D18888"/>
<path d="M330.13 627.225C331.121 626.869 332.212 627.388 332.568 628.379L332.872 629.175C333.056 629.627 333.3 630.208 333.604 630.911C334.511 632.972 335.635 635.277 336.995 637.761C340.876 644.87 345.831 651.982 351.951 658.618C374.59 683.171 406.387 694.725 449.058 686.112C450.092 685.904 451.095 686.573 451.306 687.607C451.514 688.638 450.845 689.644 449.811 689.852C405.785 698.739 372.658 686.703 349.146 661.204C342.802 654.327 337.67 646.958 333.646 639.59C332.468 637.435 331.459 635.41 330.606 633.545L330.111 632.445C329.861 631.872 329.641 631.348 329.448 630.875L328.975 629.666C328.62 628.675 329.135 627.581 330.13 627.225Z" fill="#D18888"/>
<path d="M289.249 574.383C289.954 569.929 293.369 567.753 299.107 569.615C307.876 572.46 309.449 578.557 307.497 589.834L307.186 591.522C305.869 598.324 308.389 601.982 314.687 602.895C315.73 603.046 316.453 604.013 316.303 605.056C316.152 606.099 315.181 606.822 314.139 606.671C305.893 605.475 301.936 600.026 303.311 591.531L303.751 589.12C305.393 579.636 304.224 575.287 297.931 573.247C294.45 572.117 293.359 572.813 293.016 574.98C292.886 575.793 292.907 576.713 293.025 577.584L293.094 578.03C293.1 578.063 293.106 578.09 293.109 578.108C293.335 579.139 292.681 580.154 291.651 580.38C290.623 580.603 289.607 579.949 289.381 578.922L289.315 578.578C289.294 578.439 289.267 578.274 289.243 578.09C289.083 576.881 289.053 575.613 289.249 574.383Z" fill="#D18888"/>
<path fill-rule="evenodd" clip-rule="evenodd" d="M403.476 640.211C403.368 641.19 402.482 641.901 401.502 641.793C400.517 641.684 399.806 640.792 399.914 639.813C400.029 638.83 400.915 638.122 401.894 638.234C402.88 638.339 403.585 639.228 403.476 640.211Z" fill="#D18888"/>
<path fill-rule="evenodd" clip-rule="evenodd" d="M376.983 648.375C376.875 649.357 375.989 650.065 375.003 649.957C374.024 649.848 373.313 648.959 373.421 647.977C373.536 646.998 374.422 646.286 375.401 646.401C376.387 646.503 377.092 647.395 376.983 648.375Z" fill="#D18888"/>
<path fill-rule="evenodd" clip-rule="evenodd" d="M463.804 649.607C464.199 650.514 463.783 651.569 462.873 651.961C461.966 652.356 460.911 651.94 460.519 651.03C460.124 650.126 460.54 649.068 461.45 648.676C462.355 648.281 463.412 648.697 463.804 649.607Z" fill="#D18888"/>
<path fill-rule="evenodd" clip-rule="evenodd" d="M480.135 640.159C480.527 641.07 480.111 642.121 479.204 642.516C478.294 642.908 477.242 642.492 476.847 641.585C476.455 640.681 476.871 639.623 477.778 639.228C478.682 638.836 479.74 639.252 480.135 640.159Z" fill="#D18888"/>
<path fill-rule="evenodd" clip-rule="evenodd" d="M449.513 655.593C449.905 656.503 449.489 657.554 448.582 657.949C447.678 658.341 446.62 657.925 446.225 657.018C445.833 656.114 446.249 655.056 447.156 654.661C448.066 654.27 449.118 654.685 449.513 655.593Z" fill="#D18888"/>
<path fill-rule="evenodd" clip-rule="evenodd" d="M428.421 652.606C428.812 653.513 428.397 654.565 427.489 654.96C426.585 655.351 425.528 654.939 425.133 654.028C424.741 653.124 425.157 652.067 426.064 651.672C426.974 651.28 428.026 651.696 428.421 652.606Z" fill="#D18888"/>
<path fill-rule="evenodd" clip-rule="evenodd" d="M355.755 642.13C356.146 643.04 355.731 644.092 354.823 644.487C353.919 644.879 352.862 644.469 352.467 643.556C352.075 642.652 352.491 641.594 353.398 641.199C354.308 640.81 355.36 641.223 355.755 642.13Z" fill="#D18888"/>
<path fill-rule="evenodd" clip-rule="evenodd" d="M391.322 666.035C391.214 667.02 390.328 667.729 389.345 667.617C388.36 667.509 387.652 666.623 387.76 665.64C387.872 664.655 388.758 663.946 389.74 664.058C390.725 664.166 391.431 665.052 391.322 666.035Z" fill="#D18888"/>
<path fill-rule="evenodd" clip-rule="evenodd" d="M405.053 662.521C404.944 663.506 404.058 664.212 403.076 664.103C402.09 663.995 401.382 663.109 401.49 662.123C401.602 661.141 402.488 660.433 403.47 660.544C404.456 660.65 405.161 661.539 405.053 662.521Z" fill="#D18888"/>
<path fill-rule="evenodd" clip-rule="evenodd" d="M461.357 664.344C461.248 665.33 460.362 666.041 459.38 665.926C458.394 665.818 457.686 664.932 457.795 663.952C457.906 662.967 458.792 662.256 459.775 662.37C460.76 662.479 461.465 663.365 461.357 664.344Z" fill="#D18888"/>
<path fill-rule="evenodd" clip-rule="evenodd" d="M451.351 643.688C451.243 644.674 450.357 645.379 449.374 645.271C448.389 645.162 447.681 644.276 447.789 643.291C447.901 642.311 448.787 641.6 449.769 641.714C450.755 641.817 451.46 642.709 451.351 643.688Z" fill="#D18888"/>
<path fill-rule="evenodd" clip-rule="evenodd" d="M456.836 625.459C456.728 626.444 455.842 627.149 454.859 627.041C453.874 626.932 453.166 626.046 453.274 625.061C453.386 624.081 454.272 623.37 455.254 623.485C456.24 623.587 456.945 624.479 456.836 625.459Z" fill="#D18888"/>
<path fill-rule="evenodd" clip-rule="evenodd" d="M375.817 659.619C375.708 660.601 374.822 661.309 373.837 661.201C372.857 661.092 372.146 660.203 372.255 659.221C372.369 658.235 373.255 657.53 374.235 657.639C375.22 657.747 375.925 658.633 375.817 659.619Z" fill="#D18888"/>
<path fill-rule="evenodd" clip-rule="evenodd" d="M487.937 751.047L480.777 721.914L448.603 724.774L429.337 798.799L386.678 717.303L291.479 707.584L278.086 753.434C278.086 753.434 340.093 837.687 440.653 822.218C490.324 814.576 487.937 751.047 487.937 751.047Z" fill="#0088FC"/>
<path fill-rule="evenodd" clip-rule="evenodd" d="M572.637 801.065C572.637 801.065 658.029 907.975 645.724 1031.96C724.465 1077.85 766.099 1083.73 795.335 1098.13C824.565 1112.52 910.575 1081.27 895.847 1008.03C882.635 942.349 713.677 863.105 689.076 840.529C652.351 806.84 589.357 796.012 572.637 801.065Z" fill="#FFC2BD"/>
<path fill-rule="evenodd" clip-rule="evenodd" d="M787.943 901.186C742.258 858.494 699.19 838.884 686.385 827.137C649.66 793.441 586.427 793.164 569.705 798.218C569.705 798.218 630.982 897.795 618.68 1021.78C652.529 1040.83 688.501 1053.52 711.772 1061.99C711.772 1061.99 706.143 1046.31 724.469 990.05C746.67 921.89 787.943 901.186 787.943 901.186Z" fill="#0088FC"/>
<path d="M636.792 866.694C637.732 866.501 638.648 867.104 638.841 868.041L639.103 869.4C639.311 870.509 639.537 871.817 639.784 873.324L640.251 876.296C640.794 879.882 641.333 883.899 641.839 888.326C649.398 954.106 644.425 1032.52 617.594 1114.6C617.299 1115.51 616.32 1116.01 615.41 1115.71C614.499 1115.41 614.002 1114.43 614.3 1113.52C640.959 1031.96 645.899 954.042 638.395 888.721C637.819 883.712 637.207 879.237 636.593 875.325L636.364 873.885C636.168 872.697 635.987 871.64 635.818 870.708L635.447 868.743C635.252 867.806 635.854 866.89 636.792 866.694Z" fill="#253368"/>
<path fill-rule="evenodd" clip-rule="evenodd" d="M583.944 1292.22C438.501 1273.59 275.862 1284.27 275.862 1284.27L281.594 1243.43C281.594 1243.43 466.444 1219.79 580.599 1250.36C583.227 1269.94 583.944 1292.22 583.944 1292.22Z" fill="#253368"/>
<path d="M443.157 1285.52C444.486 1285.06 445.936 1285.76 446.397 1287.09L447.476 1290.33C447.765 1291.22 448.079 1292.19 448.413 1293.26L449.299 1296.09C450.505 1300 451.804 1304.37 453.172 1309.19L453.69 1311.02C459.142 1330.41 464.591 1352.76 469.675 1377.78C480.807 1432.55 488.589 1492.01 491.575 1554.96L491.822 1560.46L569.283 1492.69C570.25 1491.84 571.685 1491.86 572.628 1492.68L572.872 1492.93C573.722 1493.9 573.701 1495.33 572.878 1496.28L572.634 1496.52L491.174 1567.79C489.562 1569.21 487.037 1568.12 486.955 1565.98C484.391 1499.3 476.401 1436.43 464.687 1378.79C459.856 1355.03 454.7 1333.69 449.528 1315.05L448.79 1312.4C447.241 1306.89 445.782 1301.95 444.438 1297.6L443.561 1294.79C443.01 1293.04 442.522 1291.53 442.1 1290.27L441.59 1288.76C441.129 1287.43 441.831 1285.98 443.157 1285.52Z" fill="#253368"/>
<path d="M498.769 1287.37C500.131 1287.02 501.517 1287.84 501.867 1289.2L503.202 1294.5L505.323 1303.1C505.775 1304.95 506.239 1306.86 506.716 1308.84C510.353 1323.94 513.988 1339.77 517.381 1355.58C519.093 1363.56 520.702 1371.33 522.188 1378.86L522.92 1382.6C533.585 1437.5 536.512 1470.88 527.974 1477.52C524.083 1480.55 519.644 1483.52 514.762 1486.41C508.319 1490.23 501.43 1493.75 494.543 1496.87C492.615 1497.75 490.794 1498.54 489.116 1499.25L486.147 1500.48C485.804 1500.61 485.526 1500.72 485.325 1500.8C484.014 1501.3 482.54 1500.65 482.037 1499.34C481.53 1498.03 482.187 1496.55 483.498 1496.05L485.933 1495.07C487.895 1494.25 490.08 1493.31 492.437 1492.24C499.169 1489.18 505.899 1485.75 512.164 1482.04C516.875 1479.24 521.139 1476.39 524.849 1473.51C530.768 1468.9 527.887 1435.26 518.243 1385.23L517.923 1383.57C516.245 1374.93 514.394 1365.92 512.402 1356.64C509.443 1342.85 506.297 1329.04 503.126 1315.72L500.833 1306.17L498.045 1294.86L496.936 1290.47C496.587 1289.11 497.406 1287.72 498.769 1287.37Z" fill="#253368"/>
<path fill-rule="evenodd" clip-rule="evenodd" d="M406.737 1279.08V1238.29C406.737 1232.96 410.803 1228.6 415.947 1228.44C433.007 1227.93 470.919 1227.48 505.312 1231.84C510.109 1232.45 513.729 1236.63 513.729 1241.63V1279.99C513.729 1285.47 509.431 1289.9 504.127 1289.83C484.632 1289.59 440.222 1289.06 416.173 1288.93C410.938 1288.9 406.737 1284.5 406.737 1279.08Z" fill="#E4EBF7"/>
<path fill-rule="evenodd" clip-rule="evenodd" d="M417.773 1272.05L417.782 1245.04C417.782 1241.52 421.1 1238.63 425.301 1238.52C439.218 1238.2 470.148 1237.91 498.208 1240.8C502.123 1241.21 505.073 1243.98 505.073 1247.29L505.064 1272.68C505.061 1276.31 501.553 1279.24 497.225 1279.19C481.322 1279.02 445.086 1278.66 425.467 1278.56C421.197 1278.55 417.773 1275.63 417.773 1272.05Z" fill="#253368"/>
<path fill-rule="evenodd" clip-rule="evenodd" d="M504.775 1235.59L414.455 1275.9L418.183 1284.11L509.253 1243.05L504.775 1235.59Z" fill="#E4EBF7"/>
<path fill-rule="evenodd" clip-rule="evenodd" d="M508.653 1274.61L418.123 1234.77L414.545 1243.05L506.131 1282.94L508.653 1274.61Z" fill="#E4EBF7"/>
<path d="M332.11 1278.27C333.493 1278.51 334.421 1279.83 334.18 1281.21L333.987 1282.24L333.574 1284.3L333.409 1285.08C332.758 1288.13 331.947 1291.51 330.971 1295.16C328.177 1305.58 324.597 1316 320.149 1325.75C307.25 1354 289.732 1371.15 266.761 1371.15C265.357 1371.15 264.218 1370.01 264.218 1368.6C264.218 1367.2 265.357 1366.06 266.761 1366.06C287.227 1366.06 303.359 1350.27 315.516 1323.63C319.838 1314.17 323.328 1304.01 326.052 1293.84C327.008 1290.28 327.797 1286.98 328.43 1284.02L328.87 1281.9L329.165 1280.34C329.388 1279.06 330.528 1278.18 331.79 1278.24L332.11 1278.27Z" fill="#253368"/>
<path d="M285.696 754.278C285.991 753.467 286.826 753.009 287.646 753.166L287.917 753.241L350.966 776.169C351.867 776.495 352.331 777.489 352.003 778.39C351.707 779.201 350.872 779.656 350.053 779.503L349.782 779.427L286.732 756.499C285.834 756.171 285.37 755.176 285.696 754.278Z" fill="#253368"/>
<path d="M428.852 797.133C429.771 796.864 430.735 797.395 431 798.314L431.579 800.384L432.45 803.669C432.655 804.462 432.869 805.291 433.086 806.159C434.644 812.352 436.202 819.202 437.657 826.519C441.09 843.784 443.408 860.89 444.101 876.892C444.559 887.546 444.278 897.41 443.163 906.333C443.043 907.282 442.178 907.957 441.226 907.837C440.276 907.719 439.601 906.854 439.722 905.902C440.81 897.187 441.087 887.513 440.635 877.043C439.951 861.236 437.657 844.3 434.255 827.194C432.974 820.745 431.612 814.66 430.238 809.076L429.722 807.005C429.4 805.716 429.09 804.513 428.794 803.401L427.67 799.281C427.405 798.359 427.932 797.398 428.852 797.133Z" fill="#253368"/>
<path fill-rule="evenodd" clip-rule="evenodd" d="M683.932 935.12C626.404 992 497.147 1131.19 406.152 1194.7C406.152 1194.7 309.691 1258.53 253.591 1173.51C198.893 1090.63 300.568 1030.21 300.568 1030.21C412.885 960.163 546.993 881.844 608.282 840.623C608.282 840.623 642.213 820.13 676.449 855.779C717.073 898.082 683.932 935.12 683.932 935.12Z" fill="#FFC2BD"/>
<path fill-rule="evenodd" clip-rule="evenodd" d="M292.929 844.215C274.97 816.658 221.216 745.424 148.021 796.28C98.5486 830.653 87.7175 894.405 104.529 937.166C130.192 1002.43 190.044 1092.21 244.611 1164.77C244.611 1164.77 303.73 1249.29 384.927 1192.11C453.639 1143.72 410.354 1069.97 410.354 1069.97C410.354 1069.97 313.458 875.708 292.929 844.215Z" fill="#FFC2BD"/>
<path fill-rule="evenodd" clip-rule="evenodd" d="M362.554 973.255C347.172 942.714 304.727 858.452 298.26 848.531C280.305 820.974 230.932 747.085 152.794 789.966C90.307 824.259 88.7791 894.152 103.787 937.576C114.135 967.514 164.678 1049.66 183.285 1080.4L362.554 973.255Z" fill="#0088FC"/>
<path d="M287.45 833.845C288.252 833.321 289.328 833.547 289.849 834.351L290.536 835.451C299.197 849.688 347.44 939.619 362.87 970.25C363.235 970.97 363.048 971.832 362.454 972.344L362.21 972.516L182.942 1079.66C182.12 1080.15 181.055 1079.88 180.564 1079.06C180.127 1078.33 180.291 1077.41 180.91 1076.87L181.163 1076.69L359.046 970.367L355.454 963.343C337.076 927.664 296.346 851.861 287.875 837.748L286.944 836.244C286.422 835.442 286.648 834.366 287.45 833.845Z" fill="#253368"/>
<path fill-rule="evenodd" clip-rule="evenodd" d="M734.821 922.854C734.821 922.854 640.83 945.354 612.303 910.016C586.467 878.016 606.598 844.631 606.598 844.631C606.598 844.631 628.923 815.004 671.087 795.421C698.717 782.583 773.378 748.016 783.748 760.393C797.264 776.531 741.906 801.325 742.385 816.631C743.361 847.657 834.567 817.815 851.953 820.916C885.932 826.974 847.776 896.725 734.821 922.854Z" fill="#FFC2BD"/>
<path d="M853.24 835.123C854.346 834.544 855.711 834.975 856.287 836.081C856.865 837.19 856.434 838.556 855.328 839.131C849.59 842.121 843.512 844.77 837.135 847.093C822.036 852.596 805.892 856.095 789.657 857.994C783.796 858.678 778.272 859.109 773.203 859.335L770.394 859.44C768.941 859.485 767.673 859.507 766.603 859.51L765.144 859.504C763.896 859.479 762.905 858.449 762.929 857.198C762.95 856.056 763.821 855.128 764.924 854.998L765.346 854.986L766.6 854.989C768.248 854.983 770.403 854.935 773.001 854.82C777.964 854.597 783.383 854.175 789.133 853.503C805.042 851.644 820.849 848.217 835.586 842.844C841.785 840.587 847.683 838.019 853.24 835.123Z" fill="#D18888"/>
<path d="M846.914 858.352C847.996 857.726 849.379 858.096 850.003 859.175C850.63 860.257 850.259 861.637 849.18 862.264L848.541 862.62C848.177 862.819 847.71 863.066 847.14 863.361C845.495 864.208 843.548 865.151 841.3 866.164C834.905 869.051 827.394 871.932 818.814 874.617C801.121 880.156 781.255 884.14 759.391 885.894C758.146 885.994 757.058 885.069 756.959 883.824C756.856 882.579 757.785 881.488 759.029 881.389C780.547 879.662 800.085 875.744 817.464 870.302C825.867 867.674 833.208 864.856 839.443 862.044L841.517 861.089C842.505 860.625 843.415 860.179 844.253 859.757L845.067 859.344C846.001 858.862 846.619 858.524 846.914 858.352Z" fill="#D18888"/>
<path d="M812.486 888.507C813.667 888.097 814.954 888.721 815.364 889.899C815.771 891.081 815.147 892.368 813.969 892.778C795.233 899.272 778.591 903.515 764.237 905.944C759.195 906.797 754.795 907.364 751.061 907.695L749.569 907.819C749.099 907.855 748.656 907.882 748.243 907.906L746.435 907.988C745.187 908.003 744.163 907.005 744.145 905.758C744.127 904.51 745.127 903.482 746.375 903.467L747.418 903.425L748.587 903.356C749.006 903.328 749.452 903.295 749.928 903.256L750.66 903.193C754.277 902.87 758.559 902.322 763.48 901.487C777.593 899.1 793.988 894.92 812.486 888.507Z" fill="#D18888"/>
<path fill-rule="evenodd" clip-rule="evenodd" d="M1112.52 867.936C1064.71 915.211 957.275 1030.9 881.646 1083.68C881.646 1083.68 801.471 1136.74 754.846 1066.08C709.382 997.186 793.888 946.972 793.888 946.972C887.243 888.748 998.71 823.662 1049.65 789.39C1049.65 789.39 1077.85 772.363 1106.31 801.994C1140.07 837.151 1112.52 867.936 1112.52 867.936Z" fill="#FFC2BD"/>
<path d="M429.457 668.825C430.202 668.081 431.41 668.081 432.154 668.825C432.76 669.431 433.607 670.468 434.451 671.872C437.874 677.577 437.874 683.885 432.154 689.605C431.41 690.349 430.202 690.349 429.457 689.605C428.713 688.86 428.713 687.652 429.457 686.907C433.782 682.583 433.782 678.174 431.178 673.834C430.515 672.728 429.858 671.923 429.457 671.523C428.713 670.778 428.713 669.57 429.457 668.825Z" fill="#D18888"/>
</g>
<g clip-path="url(#clip1_50_10)">
<path fill-rule="evenodd" clip-rule="evenodd" d="M266.815 1217.04C266.815 1217.04 93.4817 867.354 110.058 834.198C126.64 801.035 249.014 726.483 433.99 739.216C619.768 752.006 684.727 827.471 684.727 827.471C684.727 827.471 636.964 1049.1 596.903 1192.92C618.005 1230.6 579.65 1257.35 579.65 1257.35C579.65 1257.35 338.869 1246.22 281.594 1249.23C254.845 1237.77 266.815 1217.04 266.815 1217.04Z" fill="#0088FC"/>
<path fill-rule="evenodd" clip-rule="evenodd" d="M304.52 712.837L314.058 546.449H471.679L471.531 726.209L426.32 812.189L304.52 712.837Z" fill="#FFC2BD"/>
<path d="M428.463 642.839C429.4 642.836 430.163 643.592 430.166 644.526C430.169 645.37 429.557 646.072 428.752 646.205L428.478 646.229L412.385 646.301C411.448 646.307 410.685 645.551 410.682 644.614C410.679 643.773 411.291 643.071 412.096 642.935L412.37 642.911L428.463 642.839Z" fill="#D18888"/>
<path fill-rule="evenodd" clip-rule="evenodd" d="M360.863 455.054C360.863 455.054 447.404 427.476 473.442 467.223C498.76 505.879 508.063 650.011 463.446 674.395C427.08 694.267 350.439 689.99 328.599 621.318C328.599 621.318 310.481 568.714 313.663 520.71C316.843 472.708 360.863 455.054 360.863 455.054Z" fill="#FFC2BD"/>
<path fill-rule="evenodd" clip-rule="evenodd" d="M326.357 579.347C326.357 579.347 300.065 534.829 283.264 560.602C266.46 586.371 299.433 630.528 326.04 627.198C352.648 623.865 326.357 579.347 326.357 579.347Z" fill="#FFC2BD"/>
<path fill-rule="evenodd" clip-rule="evenodd" d="M493.13 549.403C493.13 549.403 501.626 493.463 486.44 459.834C471.251 426.207 452.247 392.782 440.816 411.564C438.447 403.083 426.082 386.52 417.195 381.258C408.304 375.993 383.577 414.619 383.577 414.619C383.577 414.619 384.572 397.348 374.636 408.399C364.702 419.453 302.518 455.301 292.941 473.03C283.367 490.76 292.308 553.586 292.308 553.586C292.308 553.586 312.717 550.584 325.772 589.111C321.233 557.784 333.457 540.63 339.849 534.012C342.278 531.502 343.562 528.12 343.637 524.637C343.791 517.94 343.95 506.702 343.643 495.753C343.507 490.926 346.819 486.755 351.527 485.679C399.444 474.721 453.012 479.416 472.125 481.668C476.446 482.18 479.903 485.444 480.708 489.72L487.386 525.242C487.386 525.242 490.255 531.381 493.13 549.403Z" fill="#253368"/>
<path d="M380.274 538.246L380.687 538.273L411.909 542.025C414.003 542.278 415.495 544.18 415.245 546.272C415.007 548.234 413.322 549.668 411.387 549.635L410.999 549.608L380.609 545.952L365.498 550.846C363.618 551.455 361.608 550.527 360.83 548.755L360.692 548.39C360.083 546.51 361.011 544.5 362.783 543.719L363.148 543.58L379.054 538.433C379.449 538.303 379.861 538.243 380.274 538.246Z" fill="#253368"/>
<path d="M472.917 534.591C473.439 534.422 473.984 534.368 474.524 534.428L474.928 534.497L487.027 537.2C489.086 537.658 490.382 539.702 489.921 541.757C489.49 543.686 487.669 544.946 485.75 544.717L485.364 544.65L474.277 542.173L445.177 551.591C443.296 552.199 441.286 551.271 440.508 549.499L440.37 549.135C439.761 547.254 440.689 545.244 442.461 544.466L442.826 544.328L472.917 534.591Z" fill="#253368"/>
<path fill-rule="evenodd" clip-rule="evenodd" d="M328.767 597.633C328.767 597.633 354.45 615.562 368.4 634.906C385.099 611.774 403.434 601.229 403.434 601.229C403.434 601.229 425.901 616.128 437.079 610.508C440.43 606.023 439.806 601.681 439.806 601.681C439.806 601.681 459.506 607.805 474.171 627.113C479.128 612.497 494.269 593.11 494.269 593.11C494.269 593.11 502.68 686.341 434.074 691.434C364.675 695.138 339.496 657.973 329.903 626.2C327.547 616.204 323.379 590.75 328.767 597.633Z" fill="#EFADAB"/>
<path d="M393.417 623.874C393.811 622.689 395.092 622.047 396.277 622.445L397.407 622.795C397.783 622.909 398.232 623.039 398.745 623.183C400.761 623.75 403.033 624.317 405.51 624.847C415.064 626.887 424.792 627.8 433.815 626.959C438.649 626.507 443.115 625.555 447.144 624.057C448.314 623.62 449.616 624.217 450.049 625.386C450.486 626.556 449.89 627.858 448.72 628.292C444.296 629.937 439.444 630.974 434.234 631.459C424.692 632.351 414.53 631.396 404.567 629.268C401.99 628.716 399.625 628.126 397.521 627.535L395.707 627.005C395.348 626.893 395.059 626.803 394.845 626.73C393.661 626.336 393.022 625.055 393.417 623.874Z" fill="#D18888"/>
<path d="M436.094 548.872C437.049 548.908 437.814 549.644 437.917 550.569L437.929 550.849L437.546 561.102L438.682 565.423C439.592 568.982 440.502 572.762 441.349 576.598C442.058 579.789 442.69 582.884 443.233 585.835L443.652 588.167C445.891 601.093 446.021 609.2 442.85 611.948C439.731 614.655 433.854 614.025 425.633 611.225C423.539 610.514 421.342 609.67 419.078 608.721C416.544 607.657 414.061 606.521 411.725 605.385L409.513 604.285C409.121 604.083 408.841 603.938 408.693 603.86C407.762 603.365 407.406 602.211 407.901 601.28C408.392 600.349 409.546 599.993 410.477 600.487L411.249 600.885C411.879 601.208 412.599 601.566 413.394 601.955C415.67 603.061 418.093 604.17 420.555 605.201C422.74 606.12 424.859 606.931 426.863 607.615C433.74 609.953 438.712 610.49 440.349 609.067C442.088 607.56 441.75 598.86 439.481 586.525C438.947 583.623 438.324 580.57 437.624 577.421C436.952 574.386 436.244 571.387 435.524 568.506L434.755 565.465L433.788 561.831L433.722 561.249L434.113 550.708C434.153 549.656 435.039 548.833 436.094 548.872Z" fill="#D18888"/>
<path d="M395.403 569.838C396.651 569.772 397.714 570.73 397.781 571.975C398.133 578.626 394.414 584.467 389.026 584.75C383.631 585.039 379.313 579.63 378.954 572.982C378.885 571.734 379.843 570.67 381.088 570.604C382.336 570.535 383.399 571.493 383.469 572.738C383.707 577.159 386.271 580.371 388.785 580.236C391.292 580.103 393.501 576.634 393.266 572.216C393.2 570.969 394.155 569.905 395.403 569.838Z" fill="#253368"/>
<path d="M470.525 565.833C471.772 565.767 472.836 566.722 472.902 567.97C473.255 574.618 469.539 580.456 464.148 580.745C458.753 581.034 454.435 575.625 454.076 568.971C454.01 567.726 454.965 566.659 456.213 566.593C457.457 566.526 458.524 567.482 458.59 568.726C458.829 573.154 461.393 576.366 463.907 576.23C466.417 576.095 468.623 572.629 468.388 568.211C468.322 566.963 469.28 565.9 470.525 565.833Z" fill="#253368"/>
<path d="M397.293 615.242C398.124 614.311 399.556 614.236 400.484 615.071C401.328 615.83 401.466 617.078 400.858 617.997L400.653 618.262L388.915 631.326C388.08 632.255 386.651 632.333 385.723 631.498C384.879 630.739 384.738 629.488 385.346 628.569L385.551 628.307L397.293 615.242Z" fill="#D18888"/>
<path d="M330.13 627.225C331.121 626.869 332.212 627.388 332.568 628.379L332.872 629.175C333.056 629.627 333.3 630.208 333.604 630.911C334.511 632.972 335.635 635.277 336.995 637.761C340.876 644.87 345.831 651.982 351.951 658.618C374.59 683.171 406.387 694.725 449.058 686.112C450.092 685.904 451.095 686.573 451.306 687.607C451.514 688.638 450.845 689.644 449.811 689.852C405.785 698.739 372.658 686.703 349.146 661.204C342.802 654.327 337.67 646.958 333.646 639.59C332.468 637.435 331.459 635.41 330.606 633.545L330.111 632.445C329.861 631.872 329.641 631.348 329.448 630.875L328.975 629.666C328.62 628.675 329.135 627.581 330.13 627.225Z" fill="#D18888"/>
<path d="M289.249 574.383C289.954 569.929 293.369 567.753 299.107 569.615C307.876 572.46 309.449 578.557 307.497 589.834L307.186 591.522C305.869 598.324 308.389 601.982 314.687 602.895C315.73 603.046 316.453 604.013 316.303 605.056C316.152 606.099 315.181 606.822 314.139 606.671C305.893 605.475 301.936 600.026 303.311 591.531L303.751 589.12C305.393 579.636 304.224 575.287 297.931 573.247C294.45 572.117 293.359 572.813 293.016 574.98C292.886 575.793 292.907 576.713 293.025 577.584L293.094 578.03C293.1 578.063 293.106 578.09 293.109 578.108C293.335 579.139 292.681 580.154 291.651 580.38C290.623 580.603 289.607 579.949 289.381 578.922L289.315 578.578C289.294 578.439 289.267 578.274 289.243 578.09C289.083 576.881 289.053 575.613 289.249 574.383Z" fill="#D18888"/>
<path fill-rule="evenodd" clip-rule="evenodd" d="M403.476 640.211C403.368 641.19 402.482 641.901 401.502 641.793C400.517 641.684 399.806 640.792 399.914 639.813C400.029 638.83 400.915 638.122 401.894 638.234C402.88 638.339 403.585 639.228 403.476 640.211Z" fill="#D18888"/>
<path fill-rule="evenodd" clip-rule="evenodd" d="M376.983 648.375C376.875 649.357 375.989 650.065 375.003 649.957C374.024 649.848 373.313 648.959 373.421 647.977C373.536 646.998 374.422 646.286 375.401 646.401C376.387 646.503 377.092 647.395 376.983 648.375Z" fill="#D18888"/>
<path fill-rule="evenodd" clip-rule="evenodd" d="M463.804 649.607C464.199 650.514 463.783 651.569 462.873 651.961C461.966 652.356 460.911 651.94 460.519 651.03C460.124 650.126 460.54 649.068 461.45 648.676C462.355 648.281 463.412 648.697 463.804 649.607Z" fill="#D18888"/>
<path fill-rule="evenodd" clip-rule="evenodd" d="M480.135 640.159C480.527 641.07 480.111 642.121 479.204 642.516C478.294 642.908 477.242 642.492 476.847 641.585C476.455 640.681 476.871 639.623 477.778 639.228C478.682 638.836 479.74 639.252 480.135 640.159Z" fill="#D18888"/>
<path fill-rule="evenodd" clip-rule="evenodd" d="M449.513 655.593C449.905 656.503 449.489 657.554 448.582 657.949C447.678 658.341 446.62 657.925 446.225 657.018C445.833 656.114 446.249 655.056 447.156 654.661C448.066 654.27 449.118 654.685 449.513 655.593Z" fill="#D18888"/>
<path fill-rule="evenodd" clip-rule="evenodd" d="M428.421 652.606C428.812 653.513 428.397 654.565 427.489 654.96C426.585 655.351 425.528 654.939 425.133 654.028C424.741 653.124 425.157 652.067 426.064 651.672C426.974 651.28 428.026 651.696 428.421 652.606Z" fill="#D18888"/>
<path fill-rule="evenodd" clip-rule="evenodd" d="M355.755 642.13C356.146 643.04 355.731 644.092 354.823 644.487C353.919 644.879 352.862 644.469 352.467 643.556C352.075 642.652 352.491 641.594 353.398 641.199C354.308 640.81 355.36 641.223 355.755 642.13Z" fill="#D18888"/>
<path fill-rule="evenodd" clip-rule="evenodd" d="M391.322 666.035C391.214 667.02 390.328 667.729 389.345 667.617C388.36 667.509 387.652 666.623 387.76 665.64C387.872 664.655 388.758 663.946 389.74 664.058C390.725 664.166 391.431 665.052 391.322 666.035Z" fill="#D18888"/>
<path fill-rule="evenodd" clip-rule="evenodd" d="M405.053 662.521C404.944 663.506 404.058 664.212 403.076 664.103C402.09 663.995 401.382 663.109 401.49 662.123C401.602 661.141 402.488 660.433 403.47 660.544C404.456 660.65 405.161 661.539 405.053 662.521Z" fill="#D18888"/>
<path fill-rule="evenodd" clip-rule="evenodd" d="M461.357 664.344C461.248 665.33 460.362 666.041 459.38 665.926C458.394 665.818 457.686 664.932 457.795 663.952C457.906 662.967 458.792 662.256 459.775 662.37C460.76 662.479 461.465 663.365 461.357 664.344Z" fill="#D18888"/>
<path fill-rule="evenodd" clip-rule="evenodd" d="M451.351 643.688C451.243 644.674 450.357 645.379 449.374 645.271C448.389 645.162 447.681 644.276 447.789 643.291C447.901 642.311 448.787 641.6 449.769 641.714C450.755 641.817 451.46 642.709 451.351 643.688Z" fill="#D18888"/>
<path fill-rule="evenodd" clip-rule="evenodd" d="M456.836 625.459C456.728 626.444 455.842 627.149 454.859 627.041C453.874 626.932 453.166 626.046 453.274 625.061C453.386 624.081 454.272 623.37 455.254 623.485C456.24 623.587 456.945 624.479 456.836 625.459Z" fill="#D18888"/>
<path fill-rule="evenodd" clip-rule="evenodd" d="M375.817 659.619C375.708 660.601 374.822 661.309 373.837 661.201C372.857 661.092 372.146 660.203 372.255 659.221C372.369 658.235 373.255 657.53 374.235 657.639C375.22 657.747 375.925 658.633 375.817 659.619Z" fill="#D18888"/>
<path fill-rule="evenodd" clip-rule="evenodd" d="M487.937 751.047L480.777 721.914L448.603 724.774L429.337 798.799L386.678 717.303L291.479 707.584L278.086 753.434C278.086 753.434 340.093 837.687 440.653 822.218C490.324 814.576 487.937 751.047 487.937 751.047Z" fill="#0088FC"/>
<path fill-rule="evenodd" clip-rule="evenodd" d="M572.637 801.065C572.637 801.065 658.029 907.975 645.724 1031.96C724.465 1077.85 766.099 1083.73 795.335 1098.13C824.565 1112.52 910.575 1081.27 895.847 1008.03C882.635 942.349 713.677 863.105 689.076 840.529C652.351 806.84 589.357 796.012 572.637 801.065Z" fill="#FFC2BD"/>
<path fill-rule="evenodd" clip-rule="evenodd" d="M787.943 901.186C742.258 858.494 699.19 838.884 686.385 827.137C649.66 793.441 586.427 793.164 569.705 798.218C569.705 798.218 630.982 897.795 618.68 1021.78C652.529 1040.83 688.501 1053.52 711.772 1061.99C711.772 1061.99 706.143 1046.31 724.469 990.05C746.67 921.89 787.943 901.186 787.943 901.186Z" fill="#0088FC"/>
<path d="M636.792 866.694C637.732 866.501 638.648 867.104 638.841 868.041L639.103 869.4C639.311 870.509 639.537 871.817 639.784 873.324L640.251 876.296C640.794 879.882 641.333 883.899 641.839 888.326C649.398 954.106 644.425 1032.52 617.594 1114.6C617.299 1115.51 616.32 1116.01 615.41 1115.71C614.499 1115.41 614.002 1114.43 614.3 1113.52C640.959 1031.96 645.899 954.042 638.395 888.721C637.819 883.712 637.207 879.237 636.593 875.325L636.364 873.885C636.168 872.697 635.987 871.64 635.818 870.708L635.447 868.743C635.252 867.806 635.854 866.89 636.792 866.694Z" fill="#253368"/>
<path d="M285.696 754.278C285.991 753.467 286.826 753.009 287.646 753.166L287.917 753.241L350.966 776.169C351.867 776.495 352.331 777.489 352.003 778.39C351.707 779.201 350.872 779.656 350.053 779.503L349.782 779.427L286.732 756.499C285.834 756.171 285.37 755.176 285.696 754.278Z" fill="#253368"/>
<path d="M428.852 797.133C429.771 796.864 430.735 797.395 431 798.314L431.579 800.384L432.45 803.669C432.655 804.462 432.869 805.291 433.086 806.159C434.644 812.352 436.202 819.202 437.657 826.519C441.09 843.784 443.408 860.89 444.101 876.892C444.559 887.546 444.278 897.41 443.163 906.333C443.043 907.282 442.178 907.957 441.226 907.837C440.276 907.719 439.601 906.854 439.722 905.902C440.81 897.187 441.087 887.513 440.635 877.043C439.951 861.236 437.657 844.3 434.255 827.194C432.974 820.745 431.612 814.66 430.238 809.076L429.722 807.005C429.4 805.716 429.09 804.513 428.794 803.401L427.67 799.281C427.405 798.359 427.932 797.398 428.852 797.133Z" fill="#253368"/>
<path fill-rule="evenodd" clip-rule="evenodd" d="M683.932 935.12C626.404 992 497.147 1131.19 406.152 1194.7C406.152 1194.7 309.691 1258.53 253.591 1173.51C198.893 1090.63 300.568 1030.21 300.568 1030.21C412.885 960.163 546.993 881.844 608.282 840.623C608.282 840.623 642.213 820.13 676.449 855.779C717.073 898.082 683.932 935.12 683.932 935.12Z" fill="#FFC2BD"/>
<path fill-rule="evenodd" clip-rule="evenodd" d="M292.929 844.215C274.97 816.658 221.216 745.424 148.021 796.28C98.5486 830.653 87.7175 894.405 104.529 937.166C130.192 1002.43 190.044 1092.21 244.611 1164.77C244.611 1164.77 303.73 1249.29 384.927 1192.11C453.639 1143.72 410.354 1069.97 410.354 1069.97C410.354 1069.97 313.458 875.708 292.929 844.215Z" fill="#FFC2BD"/>
<path fill-rule="evenodd" clip-rule="evenodd" d="M362.554 973.255C347.172 942.714 304.727 858.452 298.26 848.531C280.305 820.974 230.932 747.085 152.794 789.966C90.307 824.259 88.7791 894.152 103.787 937.576C114.135 967.514 164.678 1049.66 183.285 1080.4L362.554 973.255Z" fill="#0088FC"/>
<path d="M287.45 833.845C288.252 833.321 289.328 833.547 289.849 834.351L290.536 835.451C299.197 849.688 347.44 939.619 362.87 970.25C363.235 970.97 363.048 971.832 362.454 972.344L362.21 972.516L182.942 1079.66C182.12 1080.15 181.055 1079.88 180.564 1079.06C180.127 1078.33 180.291 1077.41 180.91 1076.87L181.163 1076.69L359.046 970.367L355.454 963.343C337.076 927.664 296.346 851.861 287.875 837.748L286.944 836.244C286.422 835.442 286.648 834.366 287.45 833.845Z" fill="#253368"/>
<path fill-rule="evenodd" clip-rule="evenodd" d="M734.821 922.854C734.821 922.854 640.83 945.354 612.303 910.016C586.467 878.016 606.598 844.631 606.598 844.631C606.598 844.631 628.923 815.004 671.087 795.421C698.717 782.583 773.378 748.016 783.748 760.393C797.264 776.531 741.906 801.325 742.385 816.631C743.361 847.657 834.567 817.815 851.953 820.916C885.932 826.974 847.776 896.725 734.821 922.854Z" fill="#FFC2BD"/>
<path d="M853.24 835.123C854.346 834.544 855.711 834.975 856.287 836.081C856.865 837.19 856.434 838.556 855.328 839.131C849.59 842.121 843.512 844.77 837.135 847.093C822.036 852.596 805.892 856.095 789.657 857.994C783.796 858.678 778.272 859.109 773.203 859.335L770.394 859.44C768.941 859.485 767.673 859.507 766.603 859.51L765.144 859.504C763.896 859.479 762.905 858.449 762.929 857.198C762.95 856.056 763.821 855.128 764.924 854.998L765.346 854.986L766.6 854.989C768.248 854.983 770.403 854.935 773.001 854.82C777.964 854.597 783.383 854.175 789.133 853.503C805.042 851.644 820.849 848.217 835.586 842.844C841.785 840.587 847.683 838.019 853.24 835.123Z" fill="#D18888"/>
<path d="M846.914 858.352C847.996 857.726 849.379 858.096 850.003 859.175C850.63 860.257 850.259 861.637 849.18 862.264L848.541 862.62C848.177 862.819 847.71 863.066 847.14 863.361C845.495 864.208 843.548 865.151 841.3 866.164C834.905 869.051 827.394 871.932 818.814 874.617C801.121 880.156 781.255 884.14 759.391 885.894C758.146 885.994 757.058 885.069 756.959 883.824C756.856 882.579 757.785 881.488 759.029 881.389C780.547 879.662 800.085 875.744 817.464 870.302C825.867 867.674 833.208 864.856 839.443 862.044L841.517 861.089C842.505 860.625 843.415 860.179 844.253 859.757L845.067 859.344C846.001 858.862 846.619 858.524 846.914 858.352Z" fill="#D18888"/>
<path d="M812.486 888.507C813.667 888.097 814.954 888.721 815.364 889.899C815.771 891.081 815.147 892.368 813.969 892.778C795.233 899.272 778.591 903.515 764.237 905.944C759.195 906.797 754.795 907.364 751.061 907.695L749.569 907.819C749.099 907.855 748.656 907.882 748.243 907.906L746.435 907.988C745.187 908.003 744.163 907.005 744.145 905.758C744.127 904.51 745.127 903.482 746.375 903.467L747.418 903.425L748.587 903.356C749.006 903.328 749.452 903.295 749.928 903.256L750.66 903.193C754.277 902.87 758.559 902.322 763.48 901.487C777.593 899.1 793.988 894.92 812.486 888.507Z" fill="#D18888"/>
<path fill-rule="evenodd" clip-rule="evenodd" d="M1112.52 867.936C1064.71 915.211 957.275 1030.9 881.646 1083.68C881.646 1083.68 801.471 1136.74 754.846 1066.08C709.382 997.186 793.888 946.972 793.888 946.972C887.243 888.748 998.71 823.662 1049.65 789.39C1049.65 789.39 1077.85 772.363 1106.31 801.994C1140.07 837.151 1112.52 867.936 1112.52 867.936Z" fill="#FFC2BD"/>
<path fill-rule="evenodd" clip-rule="evenodd" d="M1050.66 864.726C1050.66 864.726 1025.97 834.023 1045.53 781.471C1060.65 740.837 1052.29 733.535 1055.68 710.125C1059.08 686.712 1078.03 709.414 1080.63 753.462C1080.21 785.566 1143.82 721.245 1155.85 680.492C1167.54 640.928 1240.43 754.833 1125.94 853.027C1069.5 901.427 1050.66 864.726 1050.66 864.726Z" fill="#FFC2BD"/>
<path d="M1173.26 722.695C1175.7 718.379 1178.63 716.942 1181.18 717.448L1181.52 717.529C1181.57 717.544 1181.61 717.56 1181.65 717.575C1182.63 717.93 1183.13 719.009 1182.77 719.983C1182.45 720.859 1181.55 721.354 1180.66 721.182L1180.46 721.131C1180.23 721.089 1179.88 721.125 1179.4 721.36C1178.49 721.803 1177.51 722.797 1176.53 724.548C1175.11 727.035 1173.88 730.729 1172.91 735.789L1172.7 736.895C1168.21 762.15 1149.95 781.314 1116.33 798.404C1108.11 802.578 1102.21 807.584 1098.34 813.232C1092.74 821.384 1091.74 830.006 1093.36 837.727C1093.6 838.875 1093.83 839.679 1093.98 840.071C1094.33 841.048 1093.83 842.127 1092.86 842.482C1091.88 842.838 1090.8 842.338 1090.45 841.364L1090.26 840.786C1090.08 840.222 1089.88 839.45 1089.68 838.498C1087.87 829.855 1088.99 820.211 1095.24 811.107C1099.48 804.923 1105.86 799.504 1114.62 795.053C1146.77 778.716 1164.19 760.721 1168.79 737.389L1169.01 736.235C1170.08 730.217 1171.51 725.775 1173.26 722.695Z" fill="#D18888"/>
<path d="M1168.87 702.175C1172.92 697.311 1177.58 695.846 1180.83 699.197C1181.55 699.941 1181.53 701.132 1180.79 701.852C1180.04 702.575 1178.85 702.557 1178.13 701.813C1176.84 700.481 1174.57 701.195 1171.76 704.576C1168.28 708.769 1165.18 715.89 1163.28 724.744C1161.59 732.67 1157.37 740.961 1151.41 749.269C1148.66 753.091 1145.73 756.665 1142.79 759.898C1142.02 760.748 1141.29 761.529 1140.61 762.234L1139.39 763.473C1139.15 763.711 1138.97 763.892 1138.85 764.012C1138.1 764.726 1136.9 764.699 1136.19 763.949C1135.47 763.198 1135.5 762.011 1136.25 761.294L1137.27 760.281C1138.1 759.44 1139.02 758.467 1140.01 757.373C1142.86 754.239 1145.7 750.776 1148.35 747.078C1154.04 739.152 1158.04 731.299 1159.61 723.957C1161.62 714.552 1164.96 706.882 1168.87 702.175Z" fill="#D18888"/>
<path d="M1168.8 687.061L1168.87 687.107L1168.69 687.061C1167.94 686.932 1166.82 687.326 1165.21 688.936C1162.26 691.871 1159.14 697.778 1156.03 707.31L1155.65 708.47C1152.92 717.084 1149.08 725.006 1144.42 732.209C1140.99 737.51 1137.31 742.121 1133.62 746.024C1132.59 747.118 1131.61 748.097 1130.7 748.953L1129.44 750.116C1129.08 750.436 1128.81 750.671 1128.63 750.816C1127.83 751.473 1126.64 751.352 1125.99 750.547C1125.33 749.746 1125.45 748.561 1126.25 747.904L1126.73 747.5C1126.94 747.32 1127.19 747.088 1127.5 746.81C1128.51 745.87 1129.66 744.749 1130.89 743.444C1134.42 739.701 1137.96 735.268 1141.27 730.166C1145.75 723.234 1149.45 715.616 1152.07 707.334C1158.17 688.104 1164.49 681.799 1169.99 683.52C1170.3 683.614 1170.54 683.725 1170.71 683.828C1171.6 684.358 1171.9 685.509 1171.37 686.401C1170.84 687.296 1169.69 687.589 1168.8 687.061Z" fill="#D18888"/>
<path d="M429.457 668.825C430.202 668.081 431.41 668.081 432.154 668.825C432.76 669.431 433.607 670.468 434.451 671.872C437.874 677.577 437.874 683.885 432.154 689.605C431.41 690.349 430.202 690.349 429.457 689.605C428.713 688.86 428.713 687.652 429.457 686.907C433.782 682.583 433.782 678.174 431.178 673.834C430.515 672.728 429.858 671.923 429.457 671.523C428.713 670.778 428.713 669.57 429.457 668.825Z" fill="#D18888"/>
</g>
<defs>
<clipPath id="clip0_50_10">
<rect y="-8" width="1000" height="1588" rx="500" fill="white"/>
</clipPath>
<clipPath id="clip1_50_10">
<rect width="1207" height="1014" fill="white" transform="translate(0 -8)"/>
</clipPath>
</defs>
</svg>
